<mxfile host="app.diagrams.net" agent="Mozilla/5.0 (Windows NT 10.0; Win64; x64) AppleWebKit/537.36 (KHTML, like Gecko) Chrome/134.0.0.0 Safari/537.36" version="26.2.8">
  <diagram name="第 1 页" id="e1mVWPc8hhQHjVraP0k2">
    <mxGraphModel dx="1723" dy="969" grid="0" gridSize="10" guides="1" tooltips="1" connect="1" arrows="1" fold="1" page="0" pageScale="1" pageWidth="1169" pageHeight="827" math="0" shadow="0">
      <root>
        <mxCell id="0" />
        <mxCell id="1" parent="0" />
        <mxCell id="KDIIw58VPlwUZjhpVJfq-1" value="" style="whiteSpace=wrap;strokeWidth=2;" vertex="1" parent="1">
          <mxGeometry x="112" y="1519" width="278" height="440" as="geometry" />
        </mxCell>
        <mxCell id="KDIIw58VPlwUZjhpVJfq-2" value="" style="whiteSpace=wrap;strokeWidth=2;" vertex="1" parent="1">
          <mxGeometry x="75" y="1006" width="365" height="440" as="geometry" />
        </mxCell>
        <mxCell id="KDIIw58VPlwUZjhpVJfq-3" value="" style="whiteSpace=wrap;strokeWidth=2;" vertex="1" parent="1">
          <mxGeometry x="90" y="446" width="358" height="488" as="geometry" />
        </mxCell>
        <mxCell id="KDIIw58VPlwUZjhpVJfq-4" value="" style="whiteSpace=wrap;strokeWidth=2;" vertex="1" parent="1">
          <mxGeometry x="468" y="109" width="336" height="465" as="geometry" />
        </mxCell>
        <mxCell id="KDIIw58VPlwUZjhpVJfq-5" value="开始" style="rounded=1;whiteSpace=wrap;arcSize=50;strokeWidth=2;" vertex="1" parent="1">
          <mxGeometry x="580" y="20" width="57" height="39" as="geometry" />
        </mxCell>
        <mxCell id="KDIIw58VPlwUZjhpVJfq-6" value="解析OSGB模型数据" style="whiteSpace=wrap;strokeWidth=2;" vertex="1" parent="1">
          <mxGeometry x="525" y="155" width="194" height="54" as="geometry" />
        </mxCell>
        <mxCell id="KDIIw58VPlwUZjhpVJfq-7" value="提取几何顶点信息" style="whiteSpace=wrap;strokeWidth=2;" vertex="1" parent="1">
          <mxGeometry x="531" y="241" width="188" height="54" as="geometry" />
        </mxCell>
        <mxCell id="KDIIw58VPlwUZjhpVJfq-8" value="生成UV映射图" style="whiteSpace=wrap;strokeWidth=2;" vertex="1" parent="1">
          <mxGeometry x="542" y="346" width="160" height="54" as="geometry" />
        </mxCell>
        <mxCell id="KDIIw58VPlwUZjhpVJfq-9" value="创建遮罩图像&#xa;标记孔洞区域" style="whiteSpace=wrap;strokeWidth=2;" vertex="1" parent="1">
          <mxGeometry x="546" y="460" width="156" height="78" as="geometry" />
        </mxCell>
        <mxCell id="KDIIw58VPlwUZjhpVJfq-10" value="加载预训练修复模型" style="whiteSpace=wrap;strokeWidth=2;" vertex="1" parent="1">
          <mxGeometry x="153" y="502" width="204" height="54" as="geometry" />
        </mxCell>
        <mxCell id="KDIIw58VPlwUZjhpVJfq-11" value="输入掩膜区域" style="whiteSpace=wrap;strokeWidth=2;" vertex="1" parent="1">
          <mxGeometry x="241" y="647" width="156" height="54" as="geometry" />
        </mxCell>
        <mxCell id="KDIIw58VPlwUZjhpVJfq-12" value="执行GAN网络推理" style="whiteSpace=wrap;strokeWidth=2;" vertex="1" parent="1">
          <mxGeometry x="226" y="751" width="186" height="54" as="geometry" />
        </mxCell>
        <mxCell id="KDIIw58VPlwUZjhpVJfq-13" value="输出修复纹理区域" style="whiteSpace=wrap;strokeWidth=2;" vertex="1" parent="1">
          <mxGeometry x="225" y="855" width="188" height="54" as="geometry" />
        </mxCell>
        <mxCell id="KDIIw58VPlwUZjhpVJfq-14" value="合并修复区域到原图" style="whiteSpace=wrap;strokeWidth=2;" vertex="1" parent="1">
          <mxGeometry x="153" y="1031" width="204" height="54" as="geometry" />
        </mxCell>
        <mxCell id="KDIIw58VPlwUZjhpVJfq-15" value="格式转换&#xa;JPEG→DDS" style="whiteSpace=wrap;strokeWidth=2;" vertex="1" parent="1">
          <mxGeometry x="243" y="1135" width="139" height="78" as="geometry" />
        </mxCell>
        <mxCell id="KDIIw58VPlwUZjhpVJfq-16" value="生成Mipmap链" style="whiteSpace=wrap;strokeWidth=2;" vertex="1" parent="1">
          <mxGeometry x="231" y="1263" width="163" height="54" as="geometry" />
        </mxCell>
        <mxCell id="KDIIw58VPlwUZjhpVJfq-17" value="保存新纹理集" style="whiteSpace=wrap;strokeWidth=2;" vertex="1" parent="1">
          <mxGeometry x="235" y="1367" width="156" height="54" as="geometry" />
        </mxCell>
        <mxCell id="KDIIw58VPlwUZjhpVJfq-18" value="修改纹理路径引用" style="whiteSpace=wrap;strokeWidth=2;" vertex="1" parent="1">
          <mxGeometry x="161" y="1544" width="188" height="54" as="geometry" />
        </mxCell>
        <mxCell id="KDIIw58VPlwUZjhpVJfq-19" value="更新顶点属性表" style="whiteSpace=wrap;strokeWidth=2;" vertex="1" parent="1">
          <mxGeometry x="179" y="1648" width="172" height="54" as="geometry" />
        </mxCell>
        <mxCell id="KDIIw58VPlwUZjhpVJfq-20" value="重建LOD层级" style="whiteSpace=wrap;strokeWidth=2;" vertex="1" parent="1">
          <mxGeometry x="188" y="1752" width="153" height="54" as="geometry" />
        </mxCell>
        <mxCell id="KDIIw58VPlwUZjhpVJfq-21" value="生成新OSGB文件" style="whiteSpace=wrap;strokeWidth=2;" vertex="1" parent="1">
          <mxGeometry x="175" y="1856" width="178" height="54" as="geometry" />
        </mxCell>
        <mxCell id="KDIIw58VPlwUZjhpVJfq-22" value="完成" style="rounded=1;whiteSpace=wrap;arcSize=50;strokeWidth=2;" vertex="1" parent="1">
          <mxGeometry x="20" y="1655" width="57" height="39" as="geometry" />
        </mxCell>
        <mxCell id="KDIIw58VPlwUZjhpVJfq-23" value="" style="curved=1;startArrow=none;endArrow=block;exitX=0.67;exitY=1;entryX=0.5;entryY=0;rounded=0;fontSize=12;startSize=8;endSize=8;" edge="1" parent="1" source="KDIIw58VPlwUZjhpVJfq-6" target="KDIIw58VPlwUZjhpVJfq-7">
          <mxGeometry relative="1" as="geometry">
            <Array as="points">
              <mxPoint x="673" y="213" />
            </Array>
          </mxGeometry>
        </mxCell>
        <mxCell id="KDIIw58VPlwUZjhpVJfq-24" value="" style="curved=1;startArrow=none;endArrow=block;exitX=0.5;exitY=1;entryX=0.5;entryY=0;rounded=0;fontSize=12;startSize=8;endSize=8;" edge="1" parent="1" source="KDIIw58VPlwUZjhpVJfq-7" target="KDIIw58VPlwUZjhpVJfq-8">
          <mxGeometry relative="1" as="geometry">
            <Array as="points" />
          </mxGeometry>
        </mxCell>
        <mxCell id="KDIIw58VPlwUZjhpVJfq-25" value="" style="curved=1;startArrow=none;endArrow=block;exitX=0.5;exitY=1;entryX=0.5;entryY=0;rounded=0;fontSize=12;startSize=8;endSize=8;" edge="1" parent="1" source="KDIIw58VPlwUZjhpVJfq-8" target="KDIIw58VPlwUZjhpVJfq-9">
          <mxGeometry relative="1" as="geometry">
            <Array as="points" />
          </mxGeometry>
        </mxCell>
        <mxCell id="KDIIw58VPlwUZjhpVJfq-26" value="" style="curved=1;startArrow=none;endArrow=block;exitX=0.63;exitY=1;entryX=0.42;entryY=-0.01;rounded=0;fontSize=12;startSize=8;endSize=8;" edge="1" parent="1" source="KDIIw58VPlwUZjhpVJfq-10" target="KDIIw58VPlwUZjhpVJfq-11">
          <mxGeometry relative="1" as="geometry">
            <Array as="points">
              <mxPoint x="291" y="574" />
              <mxPoint x="291" y="610" />
            </Array>
          </mxGeometry>
        </mxCell>
        <mxCell id="KDIIw58VPlwUZjhpVJfq-27" value="" style="curved=1;startArrow=none;endArrow=block;exitX=0.5;exitY=0.99;entryX=0.5;entryY=-0.01;rounded=0;fontSize=12;startSize=8;endSize=8;" edge="1" parent="1" source="KDIIw58VPlwUZjhpVJfq-11" target="KDIIw58VPlwUZjhpVJfq-12">
          <mxGeometry relative="1" as="geometry">
            <Array as="points" />
          </mxGeometry>
        </mxCell>
        <mxCell id="KDIIw58VPlwUZjhpVJfq-28" value="" style="curved=1;startArrow=none;endArrow=block;exitX=0.5;exitY=0.99;entryX=0.5;entryY=-0.01;rounded=0;fontSize=12;startSize=8;endSize=8;" edge="1" parent="1" source="KDIIw58VPlwUZjhpVJfq-12" target="KDIIw58VPlwUZjhpVJfq-13">
          <mxGeometry relative="1" as="geometry">
            <Array as="points" />
          </mxGeometry>
        </mxCell>
        <mxCell id="KDIIw58VPlwUZjhpVJfq-29" value="" style="curved=1;startArrow=none;endArrow=block;exitX=0.65;exitY=1.01;entryX=0.5;entryY=0;rounded=0;fontSize=12;startSize=8;endSize=8;" edge="1" parent="1" source="KDIIw58VPlwUZjhpVJfq-14" target="KDIIw58VPlwUZjhpVJfq-15">
          <mxGeometry relative="1" as="geometry">
            <Array as="points">
              <mxPoint x="313" y="1110" />
            </Array>
          </mxGeometry>
        </mxCell>
        <mxCell id="KDIIw58VPlwUZjhpVJfq-30" value="" style="curved=1;startArrow=none;endArrow=block;exitX=0.5;exitY=1;entryX=0.5;entryY=0.01;rounded=0;fontSize=12;startSize=8;endSize=8;" edge="1" parent="1" source="KDIIw58VPlwUZjhpVJfq-15" target="KDIIw58VPlwUZjhpVJfq-16">
          <mxGeometry relative="1" as="geometry">
            <Array as="points" />
          </mxGeometry>
        </mxCell>
        <mxCell id="KDIIw58VPlwUZjhpVJfq-31" value="" style="curved=1;startArrow=none;endArrow=block;exitX=0.5;exitY=1.01;entryX=0.5;entryY=0.01;rounded=0;fontSize=12;startSize=8;endSize=8;" edge="1" parent="1" source="KDIIw58VPlwUZjhpVJfq-16" target="KDIIw58VPlwUZjhpVJfq-17">
          <mxGeometry relative="1" as="geometry">
            <Array as="points" />
          </mxGeometry>
        </mxCell>
        <mxCell id="KDIIw58VPlwUZjhpVJfq-32" value="" style="curved=1;startArrow=none;endArrow=block;exitX=0.53;exitY=1;entryX=0.5;entryY=0;rounded=0;fontSize=12;startSize=8;endSize=8;" edge="1" parent="1" source="KDIIw58VPlwUZjhpVJfq-18" target="KDIIw58VPlwUZjhpVJfq-19">
          <mxGeometry relative="1" as="geometry">
            <Array as="points">
              <mxPoint x="265" y="1623" />
            </Array>
          </mxGeometry>
        </mxCell>
        <mxCell id="KDIIw58VPlwUZjhpVJfq-33" value="" style="curved=1;startArrow=none;endArrow=block;exitX=0.5;exitY=1;entryX=0.5;entryY=0;rounded=0;fontSize=12;startSize=8;endSize=8;" edge="1" parent="1" source="KDIIw58VPlwUZjhpVJfq-19" target="KDIIw58VPlwUZjhpVJfq-20">
          <mxGeometry relative="1" as="geometry">
            <Array as="points" />
          </mxGeometry>
        </mxCell>
        <mxCell id="KDIIw58VPlwUZjhpVJfq-34" value="" style="curved=1;startArrow=none;endArrow=block;exitX=0.5;exitY=1;entryX=0.5;entryY=0;rounded=0;fontSize=12;startSize=8;endSize=8;" edge="1" parent="1" source="KDIIw58VPlwUZjhpVJfq-20" target="KDIIw58VPlwUZjhpVJfq-21">
          <mxGeometry relative="1" as="geometry">
            <Array as="points" />
          </mxGeometry>
        </mxCell>
        <mxCell id="KDIIw58VPlwUZjhpVJfq-35" value="mask.png" style="curved=1;dashed=1;dashPattern=2 3;startArrow=none;endArrow=block;exitX=0.5;exitY=1;entryX=0.6;entryY=-0.01;rounded=0;fontSize=12;startSize=8;endSize=8;" edge="1" parent="1" source="KDIIw58VPlwUZjhpVJfq-9" target="KDIIw58VPlwUZjhpVJfq-11">
          <mxGeometry relative="1" as="geometry">
            <Array as="points">
              <mxPoint x="673" y="574" />
              <mxPoint x="356" y="610" />
            </Array>
          </mxGeometry>
        </mxCell>
        <mxCell id="KDIIw58VPlwUZjhpVJfq-36" value="patched.png" style="curved=1;dashed=1;dashPattern=2 3;startArrow=none;endArrow=block;exitX=0.5;exitY=0.99;entryX=0.66;entryY=0.01;rounded=0;fontSize=12;startSize=8;endSize=8;" edge="1" parent="1" source="KDIIw58VPlwUZjhpVJfq-13" target="KDIIw58VPlwUZjhpVJfq-14">
          <mxGeometry relative="1" as="geometry">
            <Array as="points">
              <mxPoint x="319" y="1006" />
            </Array>
          </mxGeometry>
        </mxCell>
        <mxCell id="KDIIw58VPlwUZjhpVJfq-37" value="textures/" style="curved=1;dashed=1;dashPattern=2 3;startArrow=none;endArrow=block;exitX=0.5;exitY=1.01;entryX=0.66;entryY=0;rounded=0;fontSize=12;startSize=8;endSize=8;" edge="1" parent="1" source="KDIIw58VPlwUZjhpVJfq-17" target="KDIIw58VPlwUZjhpVJfq-18">
          <mxGeometry relative="1" as="geometry">
            <Array as="points">
              <mxPoint x="313" y="1519" />
            </Array>
          </mxGeometry>
        </mxCell>
        <mxCell id="KDIIw58VPlwUZjhpVJfq-38" value="" style="curved=1;startArrow=none;endArrow=block;rounded=0;fontSize=12;startSize=8;endSize=8;" edge="1" parent="1" source="KDIIw58VPlwUZjhpVJfq-5" target="KDIIw58VPlwUZjhpVJfq-4">
          <mxGeometry relative="1" as="geometry">
            <Array as="points" />
          </mxGeometry>
        </mxCell>
        <mxCell id="KDIIw58VPlwUZjhpVJfq-39" value="" style="curved=1;startArrow=none;endArrow=block;rounded=0;fontSize=12;startSize=8;endSize=8;" edge="1" parent="1" source="KDIIw58VPlwUZjhpVJfq-4" target="KDIIw58VPlwUZjhpVJfq-3">
          <mxGeometry relative="1" as="geometry">
            <Array as="points" />
          </mxGeometry>
        </mxCell>
        <mxCell id="KDIIw58VPlwUZjhpVJfq-40" value="" style="curved=1;startArrow=none;endArrow=block;rounded=0;fontSize=12;startSize=8;endSize=8;" edge="1" parent="1" source="KDIIw58VPlwUZjhpVJfq-3" target="KDIIw58VPlwUZjhpVJfq-2">
          <mxGeometry relative="1" as="geometry">
            <Array as="points" />
          </mxGeometry>
        </mxCell>
        <mxCell id="KDIIw58VPlwUZjhpVJfq-41" value="" style="curved=1;startArrow=none;endArrow=block;rounded=0;fontSize=12;startSize=8;endSize=8;" edge="1" parent="1" source="KDIIw58VPlwUZjhpVJfq-2" target="KDIIw58VPlwUZjhpVJfq-1">
          <mxGeometry relative="1" as="geometry">
            <Array as="points" />
          </mxGeometry>
        </mxCell>
        <mxCell id="KDIIw58VPlwUZjhpVJfq-42" value="" style="curved=1;startArrow=none;endArrow=block;rounded=0;fontSize=12;startSize=8;endSize=8;" edge="1" parent="1" source="KDIIw58VPlwUZjhpVJfq-1" target="KDIIw58VPlwUZjhpVJfq-22">
          <mxGeometry relative="1" as="geometry">
            <Array as="points" />
          </mxGeometry>
        </mxCell>
        <mxCell id="KDIIw58VPlwUZjhpVJfq-43" value="&lt;span style=&quot;font-family: Helvetica; font-style: normal; font-variant-ligatures: normal; font-variant-caps: normal; letter-spacing: normal; orphans: 2; text-align: center; text-indent: 0px; text-transform: none; widows: 2; word-spacing: 0px; -webkit-text-stroke-width: 0px; white-space: normal; background-color: rgb(236, 236, 236); text-decoration-thickness: initial; text-decoration-style: initial; text-decoration-color: initial; float: none; display: inline !important;&quot;&gt;&lt;font style=&quot;font-size: 20px; color: rgb(255, 0, 0);&quot;&gt;&lt;b style=&quot;&quot;&gt;执行模型修复&lt;/b&gt;&lt;/font&gt;&lt;/span&gt;" style="text;whiteSpace=wrap;html=1;" vertex="1" parent="1">
          <mxGeometry x="203" y="449" width="169" height="36" as="geometry" />
        </mxCell>
        <mxCell id="KDIIw58VPlwUZjhpVJfq-44" value="&lt;span style=&quot;font-family: Helvetica; font-style: normal; font-variant-ligatures: normal; font-variant-caps: normal; letter-spacing: normal; orphans: 2; text-align: center; text-indent: 0px; text-transform: none; widows: 2; word-spacing: 0px; -webkit-text-stroke-width: 0px; white-space: normal; background-color: rgb(236, 236, 236); text-decoration-thickness: initial; text-decoration-style: initial; text-decoration-color: initial; float: none; display: inline !important;&quot;&gt;&lt;font style=&quot;color: rgb(255, 0, 0); font-size: 20px;&quot;&gt;&lt;b&gt;生成中间纹理和遮罩&lt;/b&gt;&lt;/font&gt;&lt;/span&gt;" style="text;whiteSpace=wrap;html=1;" vertex="1" parent="1">
          <mxGeometry x="558" y="112.00000000000001" width="201.57" height="36" as="geometry" />
        </mxCell>
        <mxCell id="KDIIw58VPlwUZjhpVJfq-45" value="&lt;span style=&quot;font-family: Helvetica; font-style: normal; font-variant-ligatures: normal; font-variant-caps: normal; letter-spacing: normal; orphans: 2; text-align: center; text-indent: 0px; text-transform: none; widows: 2; word-spacing: 0px; -webkit-text-stroke-width: 0px; white-space: normal; background-color: rgb(236, 236, 236); text-decoration-thickness: initial; text-decoration-style: initial; text-decoration-color: initial; float: none; display: inline !important;&quot;&gt;&lt;b style=&quot;&quot;&gt;&lt;font style=&quot;font-size: 20px; color: rgb(255, 0, 0);&quot;&gt;生成新纹理贴图&lt;/font&gt;&lt;/b&gt;&lt;/span&gt;" style="text;whiteSpace=wrap;html=1;" vertex="1" parent="1">
          <mxGeometry x="84.00000000000006" y="1406" width="211.43" height="36" as="geometry" />
        </mxCell>
        <mxCell id="KDIIw58VPlwUZjhpVJfq-46" value="&lt;span style=&quot;font-family: Helvetica; font-style: normal; font-variant-ligatures: normal; font-variant-caps: normal; letter-spacing: normal; orphans: 2; text-align: center; text-indent: 0px; text-transform: none; widows: 2; word-spacing: 0px; -webkit-text-stroke-width: 0px; white-space: normal; background-color: rgb(236, 236, 236); text-decoration-thickness: initial; text-decoration-style: initial; text-decoration-color: initial; float: none; display: inline !important;&quot;&gt;&lt;font style=&quot;color: rgb(255, 51, 51); font-size: 20px;&quot;&gt;&lt;b&gt;更新OSG模型文件&lt;/b&gt;&lt;/font&gt;&lt;/span&gt;" style="text;whiteSpace=wrap;html=1;" vertex="1" parent="1">
          <mxGeometry x="183.66999999999996" y="1920" width="188.33" height="36" as="geometry" />
        </mxCell>
      </root>
    </mxGraphModel>
  </diagram>
</mxfile>
